<svg viewBox="0 0 150 150" fill="none" xmlns="http://www.w3.org/2000/svg">
<path d="M75 0C33.455 0 0 49.821 0 91.071C0 127.967 28.037 149.999 75 149.999C121.963 149.999 150 127.968 150 91.071C150 49.821 116.544 0 75 0ZM51.215 61.93C49.708 63.436 47.665 64.284 45.535 64.285C43.946 64.285 42.391 63.814 41.071 62.931C39.749 62.047 38.719 60.792 38.111 59.325C37.503 57.856 37.343 56.241 37.653 54.681C37.964 53.122 38.729 51.691 39.852 50.567C40.977 49.443 42.409 48.678 43.967 48.368C45.526 48.058 47.141 48.218 48.61 48.826C50.079 49.433 51.333 50.464 52.216 51.785C53.099 53.106 53.57 54.66 53.57 56.25C53.569 58.38 52.722 60.423 51.215 61.93ZM92.279 76.792C92.008 77.072 85.535 83.648 75 83.648C64.14 83.648 57.946 77.038 57.688 76.757C56.978 75.984 57.029 74.782 57.802 74.072C58.575 73.364 59.774 73.414 60.483 74.182C60.576 74.281 65.904 79.848 75.001 79.848C83.873 79.848 89.495 74.204 89.551 74.147C90.283 73.398 91.485 73.381 92.236 74.111C92.986 74.841 93.007 76.039 92.279 76.792ZM110.144 61.93C108.636 63.436 106.595 64.284 104.464 64.285C102.874 64.285 101.319 63.814 99.999 62.931C98.677 62.047 97.647 60.792 97.04 59.325C96.431 57.856 96.272 56.241 96.583 54.681C96.892 53.122 97.657 51.691 98.782 50.567C99.905 49.443 101.337 48.678 102.895 48.368C104.454 48.058 106.069 48.218 107.538 48.826C109.007 49.433 110.263 50.464 111.145 51.785C112.027 53.106 112.499 54.66 112.499 56.25C112.498 58.38 111.65 60.423 110.144 61.93Z" fill="#EDB6D4"/>
</svg>
